<mxfile host="Electron" agent="Mozilla/5.0 (X11; Linux x86_64) AppleWebKit/537.36 (KHTML, like Gecko) draw.io/28.0.6 Chrome/138.0.7204.100 Electron/37.2.3 Safari/537.36" version="28.0.6">
  <diagram name="Page-1" id="TuGj5kvht_a5tFD4zAao">
    <mxGraphModel dx="1747" dy="1021" grid="1" gridSize="10" guides="1" tooltips="1" connect="1" arrows="1" fold="1" page="1" pageScale="1" pageWidth="850" pageHeight="1100" math="1" shadow="0">
      <root>
        <mxCell id="0" />
        <mxCell id="1" parent="0" />
        <mxCell id="6OfktCob442GTA9k2TRW-151" value="" style="rounded=0;whiteSpace=wrap;html=1;fillColor=none;strokeColor=#CCCCFF;strokeWidth=3;opacity=50;" parent="1" vertex="1">
          <mxGeometry x="160" y="520" width="870" height="490" as="geometry" />
        </mxCell>
        <mxCell id="6OfktCob442GTA9k2TRW-150" value="" style="rounded=0;whiteSpace=wrap;html=1;fillColor=none;strokeColor=#FFCCE6;strokeWidth=3;opacity=50;" parent="1" vertex="1">
          <mxGeometry x="160" y="10" width="870" height="490" as="geometry" />
        </mxCell>
        <mxCell id="6OfktCob442GTA9k2TRW-63" value="" style="rounded=0;whiteSpace=wrap;html=1;fillColor=#FFF2CC;strokeColor=none;opacity=40;" parent="1" vertex="1">
          <mxGeometry x="160" y="240" width="530" height="260" as="geometry" />
        </mxCell>
        <mxCell id="6OfktCob442GTA9k2TRW-59" value="" style="rounded=0;whiteSpace=wrap;html=1;fillColor=#D5E8D4;strokeColor=none;opacity=40;" parent="1" vertex="1">
          <mxGeometry x="690" y="240" width="340" height="260" as="geometry" />
        </mxCell>
        <mxCell id="6OfktCob442GTA9k2TRW-60" value="" style="rounded=0;whiteSpace=wrap;html=1;fillColor=#E6D0DE;strokeColor=none;opacity=40;" parent="1" vertex="1">
          <mxGeometry x="160" y="10" width="870" height="230" as="geometry" />
        </mxCell>
        <mxCell id="AMzglcMHUrroP556hHJn-6" value="" style="endArrow=none;html=1;rounded=0;exitDx=0;exitDy=0;exitPerimeter=0;strokeWidth=2;" parent="1" edge="1">
          <mxGeometry width="50" height="50" relative="1" as="geometry">
            <mxPoint x="240" y="201" as="sourcePoint" />
            <mxPoint x="240" y="80" as="targetPoint" />
          </mxGeometry>
        </mxCell>
        <mxCell id="AMzglcMHUrroP556hHJn-7" value="" style="endArrow=none;html=1;rounded=0;exitDx=0;exitDy=0;exitPerimeter=0;strokeWidth=2;" parent="1" edge="1">
          <mxGeometry width="50" height="50" relative="1" as="geometry">
            <mxPoint x="380" y="159" as="sourcePoint" />
            <mxPoint x="380" y="80" as="targetPoint" />
          </mxGeometry>
        </mxCell>
        <mxCell id="AMzglcMHUrroP556hHJn-8" value="" style="verticalLabelPosition=bottom;shadow=0;dashed=0;align=center;html=1;verticalAlign=top;shape=mxgraph.electrical.transistors.nmos;pointerEvents=1;strokeWidth=2;" parent="1" vertex="1">
          <mxGeometry x="180" y="280" width="60" height="100" as="geometry" />
        </mxCell>
        <mxCell id="AMzglcMHUrroP556hHJn-9" value="" style="verticalLabelPosition=bottom;shadow=0;dashed=0;align=center;html=1;verticalAlign=top;shape=mxgraph.electrical.transistors.nmos;pointerEvents=1;direction=east;flipH=1;strokeWidth=2;fillColor=default;" parent="1" vertex="1">
          <mxGeometry x="380" y="280" width="60" height="100" as="geometry" />
        </mxCell>
        <mxCell id="AMzglcMHUrroP556hHJn-10" value="" style="endArrow=none;html=1;rounded=0;strokeWidth=2;" parent="1" edge="1">
          <mxGeometry width="50" height="50" relative="1" as="geometry">
            <mxPoint x="440" y="360" as="sourcePoint" />
            <mxPoint x="440" y="330" as="targetPoint" />
          </mxGeometry>
        </mxCell>
        <mxCell id="AMzglcMHUrroP556hHJn-11" value="" style="pointerEvents=1;verticalLabelPosition=bottom;shadow=0;dashed=0;align=center;html=1;verticalAlign=top;shape=mxgraph.electrical.signal_sources.source;aspect=fixed;points=[[0.5,0,0],[1,0.5,0],[0.5,1,0],[0,0.5,0]];elSignalType=dc3;strokeWidth=2;fillColor=none;" parent="1" vertex="1">
          <mxGeometry x="425" y="360" width="30" height="30" as="geometry" />
        </mxCell>
        <mxCell id="AMzglcMHUrroP556hHJn-12" value="" style="endArrow=none;html=1;rounded=0;strokeWidth=2;" parent="1" edge="1">
          <mxGeometry width="50" height="50" relative="1" as="geometry">
            <mxPoint x="180" y="440" as="sourcePoint" />
            <mxPoint x="180" y="330" as="targetPoint" />
          </mxGeometry>
        </mxCell>
        <mxCell id="AMzglcMHUrroP556hHJn-13" value="" style="endArrow=none;html=1;rounded=0;strokeWidth=2;" parent="1" edge="1">
          <mxGeometry width="50" height="50" relative="1" as="geometry">
            <mxPoint x="440" y="440" as="sourcePoint" />
            <mxPoint x="440" y="390" as="targetPoint" />
          </mxGeometry>
        </mxCell>
        <mxCell id="AMzglcMHUrroP556hHJn-14" value="" style="pointerEvents=1;verticalLabelPosition=bottom;shadow=0;dashed=0;align=center;html=1;verticalAlign=top;shape=mxgraph.electrical.signal_sources.current_source;direction=south;strokeWidth=2;strokeColor=#000000;fillColor=none;" parent="1" vertex="1">
          <mxGeometry x="560" y="188" width="60" height="40" as="geometry" />
        </mxCell>
        <mxCell id="AMzglcMHUrroP556hHJn-15" value="" style="pointerEvents=1;verticalLabelPosition=bottom;shadow=0;dashed=0;align=center;html=1;verticalAlign=top;shape=mxgraph.electrical.signal_sources.current_source;direction=south;strokeWidth=2;fillColor=none;" parent="1" vertex="1">
          <mxGeometry x="560" y="100" width="60" height="40" as="geometry" />
        </mxCell>
        <mxCell id="AMzglcMHUrroP556hHJn-19" value="" style="endArrow=doubleBlock;html=1;rounded=0;strokeWidth=2;entryX=0.5;entryY=1;entryDx=0;entryDy=0;entryPerimeter=0;endFill=0;" parent="1" target="AMzglcMHUrroP556hHJn-15" edge="1">
          <mxGeometry width="50" height="50" relative="1" as="geometry">
            <mxPoint x="380" y="119" as="sourcePoint" />
            <mxPoint x="560" y="119" as="targetPoint" />
          </mxGeometry>
        </mxCell>
        <mxCell id="AMzglcMHUrroP556hHJn-25" value="" style="pointerEvents=1;verticalLabelPosition=bottom;shadow=0;dashed=0;align=center;html=1;verticalAlign=top;shape=mxgraph.electrical.signal_sources.current_source;direction=south;strokeWidth=2;fillColor=none;" parent="1" vertex="1">
          <mxGeometry x="750" y="140" width="60" height="40" as="geometry" />
        </mxCell>
        <mxCell id="AMzglcMHUrroP556hHJn-28" value="" style="endArrow=none;html=1;rounded=0;strokeWidth=2;entryX=0.5;entryY=1;entryDx=0;entryDy=0;entryPerimeter=0;" parent="1" source="6OfktCob442GTA9k2TRW-69" target="AMzglcMHUrroP556hHJn-25" edge="1">
          <mxGeometry width="50" height="50" relative="1" as="geometry">
            <mxPoint x="720" y="159.83" as="sourcePoint" />
            <mxPoint x="740" y="159.91" as="targetPoint" />
          </mxGeometry>
        </mxCell>
        <mxCell id="AMzglcMHUrroP556hHJn-31" value="" style="shape=waypoint;sketch=0;fillStyle=solid;size=6;pointerEvents=1;points=[];fillColor=none;resizable=0;rotatable=0;perimeter=centerPerimeter;snapToPoint=1;strokeWidth=2;" parent="1" vertex="1">
          <mxGeometry x="370" y="109" width="20" height="20" as="geometry" />
        </mxCell>
        <mxCell id="AMzglcMHUrroP556hHJn-33" value="&lt;font style=&quot;font-size: 16px; color: rgb(204, 102, 0);&quot;&gt;$$V_\text{os}[n]=V_\text{os0}-\Delta V_\text{os}[n]$$&lt;/font&gt;" style="text;html=1;align=center;verticalAlign=middle;whiteSpace=wrap;rounded=0;strokeWidth=2;" parent="1" vertex="1">
          <mxGeometry x="460" y="316" width="215" height="30" as="geometry" />
        </mxCell>
        <mxCell id="AMzglcMHUrroP556hHJn-34" value="&lt;font style=&quot;font-size: 16px; color: rgb(255, 0, 0);&quot;&gt;$$V_\text{ip}$$&lt;/font&gt;" style="text;html=1;align=center;verticalAlign=middle;whiteSpace=wrap;rounded=0;strokeWidth=2;" parent="1" vertex="1">
          <mxGeometry x="150" y="443" width="60" height="30" as="geometry" />
        </mxCell>
        <mxCell id="AMzglcMHUrroP556hHJn-35" value="&lt;font style=&quot;font-size: 16px; color: rgb(0, 153, 0);&quot;&gt;$$V_\text{im}$$&lt;/font&gt;" style="text;html=1;align=center;verticalAlign=middle;whiteSpace=wrap;rounded=0;strokeWidth=2;" parent="1" vertex="1">
          <mxGeometry x="410" y="440" width="60" height="30" as="geometry" />
        </mxCell>
        <mxCell id="AMzglcMHUrroP556hHJn-36" value="&lt;font style=&quot;font-size: 16px; color: rgb(153, 51, 255);&quot;&gt;&lt;b&gt;$$I_{l}[n]$$&lt;/b&gt;&lt;/font&gt;" style="text;html=1;align=center;verticalAlign=middle;whiteSpace=wrap;rounded=0;strokeWidth=2;" parent="1" vertex="1">
          <mxGeometry x="484" y="170" width="60" height="30" as="geometry" />
        </mxCell>
        <mxCell id="AMzglcMHUrroP556hHJn-37" value="&lt;font style=&quot;font-size: 16px;&quot;&gt;$$I_{r}[n-1]$$&lt;/font&gt;" style="text;html=1;align=center;verticalAlign=middle;whiteSpace=wrap;rounded=0;strokeWidth=2;" parent="1" vertex="1">
          <mxGeometry x="484" y="80" width="60" height="30" as="geometry" />
        </mxCell>
        <mxCell id="AMzglcMHUrroP556hHJn-82" value="&lt;font style=&quot;font-size: 14px;&quot;&gt;$$\beta:1$$&lt;/font&gt;" style="text;html=1;align=center;verticalAlign=middle;whiteSpace=wrap;rounded=0;strokeWidth=2;" parent="1" vertex="1">
          <mxGeometry x="751" y="110" width="60" height="30" as="geometry" />
        </mxCell>
        <mxCell id="m31NP56nFRz9vNVK3klE-3" value="" style="endArrow=none;html=1;rounded=0;exitX=1;exitY=0;exitDx=0;exitDy=0;exitPerimeter=0;strokeWidth=2;" parent="1" source="AMzglcMHUrroP556hHJn-8" edge="1">
          <mxGeometry width="50" height="50" relative="1" as="geometry">
            <mxPoint x="240.00000000000023" y="212.79999999999995" as="sourcePoint" />
            <mxPoint x="240" y="130" as="targetPoint" />
          </mxGeometry>
        </mxCell>
        <mxCell id="m31NP56nFRz9vNVK3klE-6" value="" style="endArrow=none;html=1;rounded=0;exitX=1;exitY=0;exitDx=0;exitDy=0;exitPerimeter=0;strokeWidth=2;" parent="1" source="AMzglcMHUrroP556hHJn-9" edge="1">
          <mxGeometry width="50" height="50" relative="1" as="geometry">
            <mxPoint x="380" y="211.85714285714266" as="sourcePoint" />
            <mxPoint x="380" y="88" as="targetPoint" />
          </mxGeometry>
        </mxCell>
        <mxCell id="6OfktCob442GTA9k2TRW-7" value="" style="endArrow=none;html=1;rounded=0;strokeWidth=2;exitX=0.5;exitY=0;exitDx=0;exitDy=0;exitPerimeter=0;" parent="1" source="AMzglcMHUrroP556hHJn-15" edge="1">
          <mxGeometry width="50" height="50" relative="1" as="geometry">
            <mxPoint x="620" y="119" as="sourcePoint" />
            <mxPoint x="680" y="120" as="targetPoint" />
          </mxGeometry>
        </mxCell>
        <mxCell id="6OfktCob442GTA9k2TRW-8" value="" style="endArrow=none;html=1;rounded=0;strokeWidth=2;strokeColor=#000000;" parent="1" edge="1">
          <mxGeometry width="50" height="50" relative="1" as="geometry">
            <mxPoint x="620" y="209" as="sourcePoint" />
            <mxPoint x="680" y="209" as="targetPoint" />
          </mxGeometry>
        </mxCell>
        <mxCell id="AMzglcMHUrroP556hHJn-16" value="" style="endArrow=doubleBlock;html=1;rounded=0;strokeWidth=2;strokeColor=#000000;endFill=0;" parent="1" source="AMzglcMHUrroP556hHJn-30" edge="1">
          <mxGeometry width="50" height="50" relative="1" as="geometry">
            <mxPoint x="240" y="209" as="sourcePoint" />
            <mxPoint x="560" y="209" as="targetPoint" />
          </mxGeometry>
        </mxCell>
        <mxCell id="6OfktCob442GTA9k2TRW-10" value="&lt;font style=&quot;font-size: 14px;&quot;&gt;$$1:1$$&lt;/font&gt;" style="text;html=1;align=center;verticalAlign=middle;whiteSpace=wrap;rounded=0;strokeWidth=2;" parent="1" vertex="1">
          <mxGeometry x="560" y="74" width="60" height="30" as="geometry" />
        </mxCell>
        <mxCell id="6OfktCob442GTA9k2TRW-11" value="&lt;font style=&quot;font-size: 14px;&quot;&gt;$$1:1$$&lt;/font&gt;" style="text;html=1;align=center;verticalAlign=middle;whiteSpace=wrap;rounded=0;strokeWidth=2;" parent="1" vertex="1">
          <mxGeometry x="560" y="162" width="60" height="30" as="geometry" />
        </mxCell>
        <mxCell id="6OfktCob442GTA9k2TRW-12" value="&lt;font style=&quot;font-size: 16px;&quot;&gt;$$I_e[n]=I_0 + \frac{V_\text{os}[n]}{R_E}$$&lt;/font&gt;" style="text;html=1;align=center;verticalAlign=middle;whiteSpace=wrap;rounded=0;strokeWidth=2;" parent="1" vertex="1">
          <mxGeometry x="828" y="119" width="190" height="30" as="geometry" />
        </mxCell>
        <mxCell id="6OfktCob442GTA9k2TRW-16" value="" style="endArrow=none;html=1;rounded=0;strokeWidth=2;strokeColor=#000000;" parent="1" edge="1">
          <mxGeometry width="50" height="50" relative="1" as="geometry">
            <mxPoint x="680" y="210" as="sourcePoint" />
            <mxPoint x="680" y="119" as="targetPoint" />
          </mxGeometry>
        </mxCell>
        <mxCell id="AMzglcMHUrroP556hHJn-30" value="" style="shape=waypoint;sketch=0;fillStyle=solid;size=6;pointerEvents=1;points=[];fillColor=none;resizable=0;rotatable=0;perimeter=centerPerimeter;snapToPoint=1;strokeWidth=2;strokeColor=#000000;" parent="1" vertex="1">
          <mxGeometry x="230" y="199" width="20" height="20" as="geometry" />
        </mxCell>
        <mxCell id="6OfktCob442GTA9k2TRW-20" value="" style="endArrow=none;html=1;rounded=0;strokeWidth=2;entryX=1;entryY=1;entryDx=0;entryDy=0;entryPerimeter=0;exitDx=0;exitDy=0;exitPerimeter=0;" parent="1" source="6OfktCob442GTA9k2TRW-24" target="AMzglcMHUrroP556hHJn-8" edge="1">
          <mxGeometry width="50" height="50" relative="1" as="geometry">
            <mxPoint x="280" y="520" as="sourcePoint" />
            <mxPoint x="280" y="410" as="targetPoint" />
          </mxGeometry>
        </mxCell>
        <mxCell id="6OfktCob442GTA9k2TRW-21" value="" style="pointerEvents=1;verticalLabelPosition=bottom;shadow=0;dashed=0;align=center;html=1;verticalAlign=top;shape=mxgraph.electrical.signal_sources.source;aspect=fixed;points=[[0.5,0,0],[1,0.5,0],[0.5,1,0],[0,0.5,0]];elSignalType=dc1;direction=south;fillColor=none;strokeWidth=2;" parent="1" vertex="1">
          <mxGeometry x="300" y="401" width="30" height="30" as="geometry" />
        </mxCell>
        <mxCell id="6OfktCob442GTA9k2TRW-23" value="" style="endArrow=none;html=1;rounded=0;strokeWidth=2;" parent="1" edge="1">
          <mxGeometry width="50" height="50" relative="1" as="geometry">
            <mxPoint x="315" y="400" as="sourcePoint" />
            <mxPoint x="314.94" y="377" as="targetPoint" />
          </mxGeometry>
        </mxCell>
        <mxCell id="6OfktCob442GTA9k2TRW-29" value="" style="endArrow=none;html=1;rounded=0;strokeWidth=2;entryDx=0;entryDy=0;entryPerimeter=0;exitX=1;exitY=1;exitDx=0;exitDy=0;exitPerimeter=0;" parent="1" source="AMzglcMHUrroP556hHJn-9" target="6OfktCob442GTA9k2TRW-24" edge="1">
          <mxGeometry width="50" height="50" relative="1" as="geometry">
            <mxPoint x="380" y="377" as="sourcePoint" />
            <mxPoint x="240" y="377" as="targetPoint" />
          </mxGeometry>
        </mxCell>
        <mxCell id="6OfktCob442GTA9k2TRW-24" value="" style="shape=waypoint;sketch=0;fillStyle=solid;size=6;pointerEvents=1;points=[];fillColor=none;resizable=0;rotatable=0;perimeter=centerPerimeter;snapToPoint=1;strokeWidth=2;" parent="1" vertex="1">
          <mxGeometry x="305" y="367" width="20" height="20" as="geometry" />
        </mxCell>
        <mxCell id="6OfktCob442GTA9k2TRW-30" value="" style="pointerEvents=1;verticalLabelPosition=bottom;shadow=0;dashed=0;align=center;html=1;verticalAlign=top;shape=mxgraph.electrical.signal_sources.signal_ground;strokeWidth=2;fillColor=none;" parent="1" vertex="1">
          <mxGeometry x="305" y="448" width="20" height="20" as="geometry" />
        </mxCell>
        <mxCell id="6OfktCob442GTA9k2TRW-31" value="" style="endArrow=none;html=1;rounded=0;strokeWidth=2;exitX=0.5;exitY=0;exitDx=0;exitDy=0;exitPerimeter=0;" parent="1" source="6OfktCob442GTA9k2TRW-30" edge="1">
          <mxGeometry width="50" height="50" relative="1" as="geometry">
            <mxPoint x="314.96" y="440" as="sourcePoint" />
            <mxPoint x="314.96" y="430" as="targetPoint" />
          </mxGeometry>
        </mxCell>
        <mxCell id="6OfktCob442GTA9k2TRW-33" value="" style="pointerEvents=1;verticalLabelPosition=bottom;shadow=0;dashed=0;align=center;html=1;verticalAlign=top;shape=mxgraph.electrical.signal_sources.source;aspect=fixed;points=[[0.5,0,0],[1,0.5,0],[0.5,1,0],[0,0.5,0]];elSourceType=dependent;elSignalType=dc3;strokeWidth=2;fillColor=none;fontSize=15;strokeColor=#FF0080;" parent="1" vertex="1">
          <mxGeometry x="760" y="336.5" width="51" height="51" as="geometry" />
        </mxCell>
        <mxCell id="6OfktCob442GTA9k2TRW-34" value="" style="pointerEvents=1;verticalLabelPosition=bottom;shadow=0;dashed=0;align=center;html=1;verticalAlign=top;shape=mxgraph.electrical.resistors.resistor_1;direction=south;strokeWidth=2;fillColor=none;" parent="1" vertex="1">
          <mxGeometry x="855" y="326" width="20" height="76" as="geometry" />
        </mxCell>
        <mxCell id="6OfktCob442GTA9k2TRW-36" value="" style="pointerEvents=1;verticalLabelPosition=bottom;shadow=0;dashed=0;align=center;html=1;verticalAlign=top;shape=mxgraph.electrical.signal_sources.source;aspect=fixed;points=[[0.5,0,0],[1,0.5,0],[0.5,1,0],[0,0.5,0]];elSignalType=dc1;direction=south;fillColor=none;strokeWidth=2;" parent="1" vertex="1">
          <mxGeometry x="915" y="344" width="43" height="43" as="geometry" />
        </mxCell>
        <mxCell id="6OfktCob442GTA9k2TRW-37" value="&lt;font style=&quot;font-size: 16px;&quot;&gt;$$V_\text{os}[n]$$&lt;/font&gt;" style="text;html=1;align=center;verticalAlign=middle;whiteSpace=wrap;rounded=0;strokeWidth=2;" parent="1" vertex="1">
          <mxGeometry x="698" y="349" width="65" height="30" as="geometry" />
        </mxCell>
        <mxCell id="6OfktCob442GTA9k2TRW-38" value="" style="endArrow=none;html=1;rounded=0;strokeWidth=2;" parent="1" edge="1">
          <mxGeometry width="50" height="50" relative="1" as="geometry">
            <mxPoint x="785.59" y="337" as="sourcePoint" />
            <mxPoint x="785" y="280" as="targetPoint" />
          </mxGeometry>
        </mxCell>
        <mxCell id="6OfktCob442GTA9k2TRW-39" value="" style="endArrow=none;html=1;rounded=0;strokeWidth=2;" parent="1" edge="1">
          <mxGeometry width="50" height="50" relative="1" as="geometry">
            <mxPoint x="785" y="441" as="sourcePoint" />
            <mxPoint x="785" y="387" as="targetPoint" />
          </mxGeometry>
        </mxCell>
        <mxCell id="6OfktCob442GTA9k2TRW-40" value="" style="endArrow=none;html=1;rounded=0;strokeWidth=2;" parent="1" source="6OfktCob442GTA9k2TRW-52" edge="1">
          <mxGeometry width="50" height="50" relative="1" as="geometry">
            <mxPoint x="865.26" y="340" as="sourcePoint" />
            <mxPoint x="865" y="280" as="targetPoint" />
          </mxGeometry>
        </mxCell>
        <mxCell id="6OfktCob442GTA9k2TRW-41" value="" style="endArrow=none;html=1;rounded=0;strokeWidth=2;exitDx=0;exitDy=0;exitPerimeter=0;" parent="1" source="6OfktCob442GTA9k2TRW-67" edge="1">
          <mxGeometry width="50" height="50" relative="1" as="geometry">
            <mxPoint x="936.62" y="340" as="sourcePoint" />
            <mxPoint x="936.36" y="280" as="targetPoint" />
          </mxGeometry>
        </mxCell>
        <mxCell id="6OfktCob442GTA9k2TRW-42" value="" style="endArrow=none;html=1;rounded=0;strokeWidth=2;" parent="1" edge="1">
          <mxGeometry width="50" height="50" relative="1" as="geometry">
            <mxPoint x="865" y="441" as="sourcePoint" />
            <mxPoint x="865" y="401" as="targetPoint" />
          </mxGeometry>
        </mxCell>
        <mxCell id="6OfktCob442GTA9k2TRW-43" value="" style="endArrow=none;html=1;rounded=0;strokeWidth=2;" parent="1" edge="1">
          <mxGeometry width="50" height="50" relative="1" as="geometry">
            <mxPoint x="936" y="441" as="sourcePoint" />
            <mxPoint x="936" y="387" as="targetPoint" />
          </mxGeometry>
        </mxCell>
        <mxCell id="6OfktCob442GTA9k2TRW-44" value="" style="endArrow=none;html=1;rounded=0;strokeWidth=2;" parent="1" edge="1">
          <mxGeometry width="50" height="50" relative="1" as="geometry">
            <mxPoint x="869" y="440" as="sourcePoint" />
            <mxPoint x="784.6600000000001" y="440" as="targetPoint" />
          </mxGeometry>
        </mxCell>
        <mxCell id="6OfktCob442GTA9k2TRW-46" value="" style="endArrow=none;html=1;rounded=0;strokeWidth=2;" parent="1" target="6OfktCob442GTA9k2TRW-45" edge="1">
          <mxGeometry width="50" height="50" relative="1" as="geometry">
            <mxPoint x="937" y="440" as="sourcePoint" />
            <mxPoint x="780.6600000000001" y="440" as="targetPoint" />
          </mxGeometry>
        </mxCell>
        <mxCell id="6OfktCob442GTA9k2TRW-45" value="" style="shape=waypoint;sketch=0;fillStyle=solid;size=6;pointerEvents=1;points=[];fillColor=none;resizable=0;rotatable=0;perimeter=centerPerimeter;snapToPoint=1;strokeWidth=2;" parent="1" vertex="1">
          <mxGeometry x="855" y="430" width="20" height="20" as="geometry" />
        </mxCell>
        <mxCell id="6OfktCob442GTA9k2TRW-47" value="" style="pointerEvents=1;verticalLabelPosition=bottom;shadow=0;dashed=0;align=center;html=1;verticalAlign=top;shape=mxgraph.electrical.signal_sources.signal_ground;strokeWidth=2;fillColor=none;" parent="1" vertex="1">
          <mxGeometry x="855" y="448" width="20" height="20" as="geometry" />
        </mxCell>
        <mxCell id="6OfktCob442GTA9k2TRW-48" value="" style="endArrow=none;html=1;rounded=0;strokeWidth=2;" parent="1" edge="1">
          <mxGeometry width="50" height="50" relative="1" as="geometry">
            <mxPoint x="864.96" y="452" as="sourcePoint" />
            <mxPoint x="864.96" y="442" as="targetPoint" />
          </mxGeometry>
        </mxCell>
        <mxCell id="6OfktCob442GTA9k2TRW-49" value="" style="endArrow=none;html=1;rounded=0;strokeWidth=2;" parent="1" edge="1">
          <mxGeometry width="50" height="50" relative="1" as="geometry">
            <mxPoint x="937" y="280" as="sourcePoint" />
            <mxPoint x="785" y="280" as="targetPoint" />
          </mxGeometry>
        </mxCell>
        <mxCell id="6OfktCob442GTA9k2TRW-50" value="" style="endArrow=none;html=1;rounded=0;strokeWidth=2;" parent="1" edge="1">
          <mxGeometry width="50" height="50" relative="1" as="geometry">
            <mxPoint x="936" y="282" as="sourcePoint" />
            <mxPoint x="936" y="160" as="targetPoint" />
          </mxGeometry>
        </mxCell>
        <mxCell id="6OfktCob442GTA9k2TRW-53" value="" style="endArrow=none;html=1;rounded=0;strokeWidth=2;" parent="1" target="6OfktCob442GTA9k2TRW-52" edge="1">
          <mxGeometry width="50" height="50" relative="1" as="geometry">
            <mxPoint x="865" y="340" as="sourcePoint" />
            <mxPoint x="865" y="280" as="targetPoint" />
          </mxGeometry>
        </mxCell>
        <mxCell id="6OfktCob442GTA9k2TRW-52" value="" style="shape=waypoint;sketch=0;fillStyle=solid;size=6;pointerEvents=1;points=[];fillColor=none;resizable=0;rotatable=0;perimeter=centerPerimeter;snapToPoint=1;strokeWidth=2;" parent="1" vertex="1">
          <mxGeometry x="855" y="269" width="20" height="20" as="geometry" />
        </mxCell>
        <mxCell id="6OfktCob442GTA9k2TRW-54" value="" style="endArrow=none;html=1;rounded=0;strokeWidth=2;startArrow=none;startFill=0;" parent="1" edge="1">
          <mxGeometry width="50" height="50" relative="1" as="geometry">
            <mxPoint x="811" y="159" as="sourcePoint" />
            <mxPoint x="937" y="160" as="targetPoint" />
          </mxGeometry>
        </mxCell>
        <mxCell id="6OfktCob442GTA9k2TRW-57" value="&lt;font style=&quot;font-size: 16px;&quot;&gt;$$R_E$$&lt;/font&gt;" style="text;html=1;align=center;verticalAlign=middle;whiteSpace=wrap;rounded=0;strokeWidth=2;" parent="1" vertex="1">
          <mxGeometry x="810" y="314" width="65" height="30" as="geometry" />
        </mxCell>
        <mxCell id="6OfktCob442GTA9k2TRW-58" value="&lt;font style=&quot;font-size: 16px;&quot;&gt;$$I_0$$&lt;/font&gt;" style="text;html=1;align=center;verticalAlign=middle;whiteSpace=wrap;rounded=0;strokeWidth=2;" parent="1" vertex="1">
          <mxGeometry x="881.5" y="315" width="65" height="30" as="geometry" />
        </mxCell>
        <mxCell id="6OfktCob442GTA9k2TRW-61" value="&lt;font style=&quot;color: rgb(153, 51, 255); font-size: 20px;&quot;&gt;&lt;b style=&quot;&quot;&gt;Feedback&lt;/b&gt;&lt;/font&gt;" style="text;html=1;align=center;verticalAlign=middle;whiteSpace=wrap;rounded=0;" parent="1" vertex="1">
          <mxGeometry x="930" y="20" width="90" height="30" as="geometry" />
        </mxCell>
        <mxCell id="6OfktCob442GTA9k2TRW-62" value="&lt;font style=&quot;color: rgb(0, 153, 0); font-size: 20px;&quot;&gt;&lt;b style=&quot;&quot;&gt;Monitor&lt;/b&gt;&lt;/font&gt;" style="text;html=1;align=center;verticalAlign=middle;whiteSpace=wrap;rounded=0;" parent="1" vertex="1">
          <mxGeometry x="960" y="251" width="60" height="30" as="geometry" />
        </mxCell>
        <mxCell id="6OfktCob442GTA9k2TRW-64" value="&lt;span style=&quot;text-align: start;&quot;&gt;&lt;font face=&quot;Helvetica&quot; style=&quot;color: rgb(204, 102, 0); font-size: 20px;&quot;&gt;&lt;b style=&quot;&quot;&gt;Objective&lt;/b&gt;&lt;/font&gt;&lt;/span&gt;" style="text;html=1;align=center;verticalAlign=middle;whiteSpace=wrap;rounded=0;" parent="1" vertex="1">
          <mxGeometry x="585" y="251" width="90" height="30" as="geometry" />
        </mxCell>
        <mxCell id="6OfktCob442GTA9k2TRW-68" value="" style="endArrow=none;html=1;rounded=0;strokeWidth=2;exitX=0;exitY=0.5;exitDx=0;exitDy=0;exitPerimeter=0;" parent="1" source="6OfktCob442GTA9k2TRW-36" target="6OfktCob442GTA9k2TRW-67" edge="1">
          <mxGeometry width="50" height="50" relative="1" as="geometry">
            <mxPoint x="937" y="344" as="sourcePoint" />
            <mxPoint x="936.36" y="280" as="targetPoint" />
          </mxGeometry>
        </mxCell>
        <mxCell id="6OfktCob442GTA9k2TRW-67" value="" style="shape=waypoint;sketch=0;fillStyle=solid;size=6;pointerEvents=1;points=[];fillColor=none;resizable=0;rotatable=0;perimeter=centerPerimeter;snapToPoint=1;strokeWidth=2;" parent="1" vertex="1">
          <mxGeometry x="926.5" y="269" width="20" height="20" as="geometry" />
        </mxCell>
        <mxCell id="6OfktCob442GTA9k2TRW-70" value="" style="endArrow=none;html=1;rounded=0;strokeWidth=2;entryDx=0;entryDy=0;entryPerimeter=0;" parent="1" target="6OfktCob442GTA9k2TRW-69" edge="1">
          <mxGeometry width="50" height="50" relative="1" as="geometry">
            <mxPoint x="720" y="160" as="sourcePoint" />
            <mxPoint x="750" y="160" as="targetPoint" />
          </mxGeometry>
        </mxCell>
        <mxCell id="6OfktCob442GTA9k2TRW-69" value="" style="shape=waypoint;sketch=0;fillStyle=solid;size=6;pointerEvents=1;points=[];fillColor=none;resizable=0;rotatable=0;perimeter=centerPerimeter;snapToPoint=1;strokeWidth=2;strokeColor=#000000;" parent="1" vertex="1">
          <mxGeometry x="670" y="150" width="20" height="20" as="geometry" />
        </mxCell>
        <mxCell id="6OfktCob442GTA9k2TRW-71" value="&lt;font style=&quot;font-size: 16px; color: rgb(153, 51, 255);&quot;&gt;$$\Delta V_\text{os}[n]=\frac{I_l[n]-I_r[n-1]}{G_m}$$&lt;/font&gt;" style="text;html=1;align=center;verticalAlign=middle;whiteSpace=wrap;rounded=0;strokeWidth=2;" parent="1" vertex="1">
          <mxGeometry x="210" y="30" width="215" height="30" as="geometry" />
        </mxCell>
        <mxCell id="6OfktCob442GTA9k2TRW-72" value="&lt;font style=&quot;font-size: 16px; color: rgb(153, 76, 0);&quot;&gt;$$G_m$$&lt;/font&gt;" style="text;html=1;align=center;verticalAlign=middle;whiteSpace=wrap;rounded=0;strokeWidth=2;" parent="1" vertex="1">
          <mxGeometry x="280" y="326" width="70" height="30" as="geometry" />
        </mxCell>
        <mxCell id="6OfktCob442GTA9k2TRW-73" value="&lt;font style=&quot;font-size: 16px;&quot;&gt;$$V_\text{os0}$$&lt;/font&gt;" style="text;html=1;align=center;verticalAlign=middle;whiteSpace=wrap;rounded=0;strokeWidth=2;" parent="1" vertex="1">
          <mxGeometry x="445" y="364" width="60" height="30" as="geometry" />
        </mxCell>
        <mxCell id="6OfktCob442GTA9k2TRW-75" value="&lt;font style=&quot;font-size: 14px; color: rgb(255, 0, 128);&quot;&gt;&lt;b style=&quot;&quot;&gt;$$+ 1$$&lt;/b&gt;&lt;/font&gt;" style="text;html=1;align=center;verticalAlign=middle;whiteSpace=wrap;rounded=0;strokeWidth=2;" parent="1" vertex="1">
          <mxGeometry x="753" y="347" width="65" height="30" as="geometry" />
        </mxCell>
        <mxCell id="6OfktCob442GTA9k2TRW-76" value="" style="rounded=0;whiteSpace=wrap;html=1;fillColor=#FFF2CC;strokeColor=none;opacity=40;" parent="1" vertex="1">
          <mxGeometry x="160" y="750" width="530" height="260" as="geometry" />
        </mxCell>
        <mxCell id="6OfktCob442GTA9k2TRW-77" value="" style="rounded=0;whiteSpace=wrap;html=1;fillColor=#D5E8D4;strokeColor=none;opacity=40;" parent="1" vertex="1">
          <mxGeometry x="690" y="750" width="340" height="260" as="geometry" />
        </mxCell>
        <mxCell id="6OfktCob442GTA9k2TRW-78" value="" style="rounded=0;whiteSpace=wrap;html=1;fillColor=#FFCCE6;strokeColor=none;opacity=40;" parent="1" vertex="1">
          <mxGeometry x="160" y="520" width="870" height="230" as="geometry" />
        </mxCell>
        <mxCell id="6OfktCob442GTA9k2TRW-79" value="" style="endArrow=none;html=1;rounded=0;exitDx=0;exitDy=0;exitPerimeter=0;strokeWidth=2;" parent="1" edge="1">
          <mxGeometry width="50" height="50" relative="1" as="geometry">
            <mxPoint x="240" y="711" as="sourcePoint" />
            <mxPoint x="240" y="590" as="targetPoint" />
          </mxGeometry>
        </mxCell>
        <mxCell id="6OfktCob442GTA9k2TRW-80" value="" style="endArrow=none;html=1;rounded=0;exitDx=0;exitDy=0;exitPerimeter=0;strokeWidth=2;" parent="1" edge="1">
          <mxGeometry width="50" height="50" relative="1" as="geometry">
            <mxPoint x="380" y="669" as="sourcePoint" />
            <mxPoint x="380" y="590" as="targetPoint" />
          </mxGeometry>
        </mxCell>
        <mxCell id="6OfktCob442GTA9k2TRW-81" value="" style="verticalLabelPosition=bottom;shadow=0;dashed=0;align=center;html=1;verticalAlign=top;shape=mxgraph.electrical.transistors.nmos;pointerEvents=1;strokeWidth=2;" parent="1" vertex="1">
          <mxGeometry x="180" y="790" width="60" height="100" as="geometry" />
        </mxCell>
        <mxCell id="6OfktCob442GTA9k2TRW-82" value="" style="verticalLabelPosition=bottom;shadow=0;dashed=0;align=center;html=1;verticalAlign=top;shape=mxgraph.electrical.transistors.nmos;pointerEvents=1;direction=east;flipH=1;strokeWidth=2;fillColor=default;" parent="1" vertex="1">
          <mxGeometry x="380" y="790" width="60" height="100" as="geometry" />
        </mxCell>
        <mxCell id="6OfktCob442GTA9k2TRW-83" value="" style="endArrow=none;html=1;rounded=0;strokeWidth=2;" parent="1" edge="1">
          <mxGeometry width="50" height="50" relative="1" as="geometry">
            <mxPoint x="440" y="870" as="sourcePoint" />
            <mxPoint x="440" y="840" as="targetPoint" />
          </mxGeometry>
        </mxCell>
        <mxCell id="6OfktCob442GTA9k2TRW-84" value="" style="pointerEvents=1;verticalLabelPosition=bottom;shadow=0;dashed=0;align=center;html=1;verticalAlign=top;shape=mxgraph.electrical.signal_sources.source;aspect=fixed;points=[[0.5,0,0],[1,0.5,0],[0.5,1,0],[0,0.5,0]];elSignalType=dc3;strokeWidth=2;fillColor=none;" parent="1" vertex="1">
          <mxGeometry x="425" y="870" width="30" height="30" as="geometry" />
        </mxCell>
        <mxCell id="6OfktCob442GTA9k2TRW-85" value="" style="endArrow=none;html=1;rounded=0;strokeWidth=2;" parent="1" edge="1">
          <mxGeometry width="50" height="50" relative="1" as="geometry">
            <mxPoint x="180" y="950" as="sourcePoint" />
            <mxPoint x="180" y="840" as="targetPoint" />
          </mxGeometry>
        </mxCell>
        <mxCell id="6OfktCob442GTA9k2TRW-86" value="" style="endArrow=none;html=1;rounded=0;strokeWidth=2;" parent="1" edge="1">
          <mxGeometry width="50" height="50" relative="1" as="geometry">
            <mxPoint x="440" y="950" as="sourcePoint" />
            <mxPoint x="440" y="900" as="targetPoint" />
          </mxGeometry>
        </mxCell>
        <mxCell id="6OfktCob442GTA9k2TRW-87" value="" style="pointerEvents=1;verticalLabelPosition=bottom;shadow=0;dashed=0;align=center;html=1;verticalAlign=top;shape=mxgraph.electrical.signal_sources.current_source;direction=south;strokeWidth=2;strokeColor=#000000;fillColor=none;" parent="1" vertex="1">
          <mxGeometry x="560" y="698" width="60" height="40" as="geometry" />
        </mxCell>
        <mxCell id="6OfktCob442GTA9k2TRW-88" value="" style="pointerEvents=1;verticalLabelPosition=bottom;shadow=0;dashed=0;align=center;html=1;verticalAlign=top;shape=mxgraph.electrical.signal_sources.current_source;direction=south;strokeWidth=2;fillColor=none;" parent="1" vertex="1">
          <mxGeometry x="560" y="610" width="60" height="40" as="geometry" />
        </mxCell>
        <mxCell id="6OfktCob442GTA9k2TRW-89" value="" style="endArrow=doubleBlock;html=1;rounded=0;strokeWidth=2;entryX=0.5;entryY=1;entryDx=0;entryDy=0;entryPerimeter=0;endFill=0;" parent="1" target="6OfktCob442GTA9k2TRW-88" edge="1">
          <mxGeometry width="50" height="50" relative="1" as="geometry">
            <mxPoint x="380" y="629" as="sourcePoint" />
            <mxPoint x="560" y="629" as="targetPoint" />
          </mxGeometry>
        </mxCell>
        <mxCell id="6OfktCob442GTA9k2TRW-90" value="" style="pointerEvents=1;verticalLabelPosition=bottom;shadow=0;dashed=0;align=center;html=1;verticalAlign=top;shape=mxgraph.electrical.signal_sources.current_source;direction=south;strokeWidth=2;fillColor=none;" parent="1" vertex="1">
          <mxGeometry x="750" y="650" width="60" height="40" as="geometry" />
        </mxCell>
        <mxCell id="6OfktCob442GTA9k2TRW-91" value="" style="endArrow=none;html=1;rounded=0;strokeWidth=2;entryX=0.5;entryY=1;entryDx=0;entryDy=0;entryPerimeter=0;" parent="1" source="6OfktCob442GTA9k2TRW-144" target="6OfktCob442GTA9k2TRW-90" edge="1">
          <mxGeometry width="50" height="50" relative="1" as="geometry">
            <mxPoint x="720" y="669.83" as="sourcePoint" />
            <mxPoint x="740" y="669.91" as="targetPoint" />
          </mxGeometry>
        </mxCell>
        <mxCell id="6OfktCob442GTA9k2TRW-92" value="" style="shape=waypoint;sketch=0;fillStyle=solid;size=6;pointerEvents=1;points=[];fillColor=none;resizable=0;rotatable=0;perimeter=centerPerimeter;snapToPoint=1;strokeWidth=2;" parent="1" vertex="1">
          <mxGeometry x="370" y="619" width="20" height="20" as="geometry" />
        </mxCell>
        <mxCell id="6OfktCob442GTA9k2TRW-93" value="&lt;font style=&quot;font-size: 16px; color: rgb(204, 102, 0);&quot;&gt;$$V_\text{os}[n]=V_\text{os0}-\Delta V_\text{os}[n]$$&lt;/font&gt;" style="text;html=1;align=center;verticalAlign=middle;whiteSpace=wrap;rounded=0;strokeWidth=2;" parent="1" vertex="1">
          <mxGeometry x="460" y="826" width="215" height="30" as="geometry" />
        </mxCell>
        <mxCell id="6OfktCob442GTA9k2TRW-94" value="&lt;font style=&quot;font-size: 16px; color: rgb(255, 0, 0);&quot;&gt;$$V_\text{ip}$$&lt;/font&gt;" style="text;html=1;align=center;verticalAlign=middle;whiteSpace=wrap;rounded=0;strokeWidth=2;" parent="1" vertex="1">
          <mxGeometry x="410" y="953" width="60" height="30" as="geometry" />
        </mxCell>
        <mxCell id="6OfktCob442GTA9k2TRW-95" value="&lt;font style=&quot;font-size: 16px; color: rgb(0, 153, 0);&quot;&gt;$$V_\text{im}$$&lt;/font&gt;" style="text;html=1;align=center;verticalAlign=middle;whiteSpace=wrap;rounded=0;strokeWidth=2;" parent="1" vertex="1">
          <mxGeometry x="160" y="953" width="60" height="30" as="geometry" />
        </mxCell>
        <mxCell id="6OfktCob442GTA9k2TRW-96" value="&lt;font style=&quot;font-size: 16px; color: rgb(51, 0, 102);&quot;&gt;$$I_{l}[n-1]$$&lt;/font&gt;" style="text;html=1;align=center;verticalAlign=middle;whiteSpace=wrap;rounded=0;strokeWidth=2;" parent="1" vertex="1">
          <mxGeometry x="484" y="680" width="60" height="30" as="geometry" />
        </mxCell>
        <mxCell id="6OfktCob442GTA9k2TRW-97" value="&lt;font style=&quot;font-size: 16px; color: rgb(153, 51, 255);&quot;&gt;&lt;b&gt;$$I_{r}[n]$$&lt;/b&gt;&lt;/font&gt;" style="text;html=1;align=center;verticalAlign=middle;whiteSpace=wrap;rounded=0;strokeWidth=2;" parent="1" vertex="1">
          <mxGeometry x="484" y="590" width="60" height="30" as="geometry" />
        </mxCell>
        <mxCell id="6OfktCob442GTA9k2TRW-98" value="&lt;font style=&quot;font-size: 14px;&quot;&gt;$$\beta:1$$&lt;/font&gt;" style="text;html=1;align=center;verticalAlign=middle;whiteSpace=wrap;rounded=0;strokeWidth=2;" parent="1" vertex="1">
          <mxGeometry x="751" y="620" width="60" height="30" as="geometry" />
        </mxCell>
        <mxCell id="6OfktCob442GTA9k2TRW-99" value="" style="endArrow=none;html=1;rounded=0;exitX=1;exitY=0;exitDx=0;exitDy=0;exitPerimeter=0;strokeWidth=2;" parent="1" source="6OfktCob442GTA9k2TRW-81" edge="1">
          <mxGeometry width="50" height="50" relative="1" as="geometry">
            <mxPoint x="240.00000000000023" y="722.8" as="sourcePoint" />
            <mxPoint x="240" y="640" as="targetPoint" />
          </mxGeometry>
        </mxCell>
        <mxCell id="6OfktCob442GTA9k2TRW-100" value="" style="endArrow=none;html=1;rounded=0;exitX=1;exitY=0;exitDx=0;exitDy=0;exitPerimeter=0;strokeWidth=2;" parent="1" source="6OfktCob442GTA9k2TRW-82" edge="1">
          <mxGeometry width="50" height="50" relative="1" as="geometry">
            <mxPoint x="380" y="721.8571428571427" as="sourcePoint" />
            <mxPoint x="380" y="598" as="targetPoint" />
          </mxGeometry>
        </mxCell>
        <mxCell id="6OfktCob442GTA9k2TRW-101" value="" style="endArrow=none;html=1;rounded=0;strokeWidth=2;exitX=0.5;exitY=0;exitDx=0;exitDy=0;exitPerimeter=0;" parent="1" source="6OfktCob442GTA9k2TRW-88" edge="1">
          <mxGeometry width="50" height="50" relative="1" as="geometry">
            <mxPoint x="620" y="629" as="sourcePoint" />
            <mxPoint x="680" y="630" as="targetPoint" />
          </mxGeometry>
        </mxCell>
        <mxCell id="6OfktCob442GTA9k2TRW-102" value="" style="endArrow=none;html=1;rounded=0;strokeWidth=2;strokeColor=#000000;" parent="1" edge="1">
          <mxGeometry width="50" height="50" relative="1" as="geometry">
            <mxPoint x="620" y="719" as="sourcePoint" />
            <mxPoint x="680" y="719" as="targetPoint" />
          </mxGeometry>
        </mxCell>
        <mxCell id="6OfktCob442GTA9k2TRW-103" value="" style="endArrow=doubleBlock;html=1;rounded=0;strokeWidth=2;strokeColor=#000000;endFill=0;" parent="1" source="6OfktCob442GTA9k2TRW-108" edge="1">
          <mxGeometry width="50" height="50" relative="1" as="geometry">
            <mxPoint x="240" y="719" as="sourcePoint" />
            <mxPoint x="560" y="719" as="targetPoint" />
          </mxGeometry>
        </mxCell>
        <mxCell id="6OfktCob442GTA9k2TRW-104" value="&lt;font style=&quot;font-size: 14px;&quot;&gt;$$1:1$$&lt;/font&gt;" style="text;html=1;align=center;verticalAlign=middle;whiteSpace=wrap;rounded=0;strokeWidth=2;" parent="1" vertex="1">
          <mxGeometry x="560" y="584" width="60" height="30" as="geometry" />
        </mxCell>
        <mxCell id="6OfktCob442GTA9k2TRW-105" value="&lt;font style=&quot;font-size: 14px;&quot;&gt;$$1:1$$&lt;/font&gt;" style="text;html=1;align=center;verticalAlign=middle;whiteSpace=wrap;rounded=0;strokeWidth=2;" parent="1" vertex="1">
          <mxGeometry x="560" y="672" width="60" height="30" as="geometry" />
        </mxCell>
        <mxCell id="6OfktCob442GTA9k2TRW-106" value="&lt;font style=&quot;font-size: 16px;&quot;&gt;$$I_e[n]=I_0 + \frac{V_\text{os}[n]}{R_E}$$&lt;/font&gt;" style="text;html=1;align=center;verticalAlign=middle;whiteSpace=wrap;rounded=0;strokeWidth=2;" parent="1" vertex="1">
          <mxGeometry x="828" y="629" width="190" height="30" as="geometry" />
        </mxCell>
        <mxCell id="6OfktCob442GTA9k2TRW-107" value="" style="endArrow=none;html=1;rounded=0;strokeWidth=2;strokeColor=#000000;" parent="1" edge="1">
          <mxGeometry width="50" height="50" relative="1" as="geometry">
            <mxPoint x="680" y="720" as="sourcePoint" />
            <mxPoint x="680" y="629" as="targetPoint" />
          </mxGeometry>
        </mxCell>
        <mxCell id="6OfktCob442GTA9k2TRW-108" value="" style="shape=waypoint;sketch=0;fillStyle=solid;size=6;pointerEvents=1;points=[];fillColor=none;resizable=0;rotatable=0;perimeter=centerPerimeter;snapToPoint=1;strokeWidth=2;strokeColor=#000000;" parent="1" vertex="1">
          <mxGeometry x="230" y="709" width="20" height="20" as="geometry" />
        </mxCell>
        <mxCell id="6OfktCob442GTA9k2TRW-109" value="" style="endArrow=none;html=1;rounded=0;strokeWidth=2;entryX=1;entryY=1;entryDx=0;entryDy=0;entryPerimeter=0;exitDx=0;exitDy=0;exitPerimeter=0;" parent="1" source="6OfktCob442GTA9k2TRW-113" target="6OfktCob442GTA9k2TRW-81" edge="1">
          <mxGeometry width="50" height="50" relative="1" as="geometry">
            <mxPoint x="280" y="1030" as="sourcePoint" />
            <mxPoint x="280" y="920" as="targetPoint" />
          </mxGeometry>
        </mxCell>
        <mxCell id="6OfktCob442GTA9k2TRW-110" value="" style="pointerEvents=1;verticalLabelPosition=bottom;shadow=0;dashed=0;align=center;html=1;verticalAlign=top;shape=mxgraph.electrical.signal_sources.source;aspect=fixed;points=[[0.5,0,0],[1,0.5,0],[0.5,1,0],[0,0.5,0]];elSignalType=dc1;direction=south;fillColor=none;strokeWidth=2;" parent="1" vertex="1">
          <mxGeometry x="300" y="911" width="30" height="30" as="geometry" />
        </mxCell>
        <mxCell id="6OfktCob442GTA9k2TRW-111" value="" style="endArrow=none;html=1;rounded=0;strokeWidth=2;" parent="1" edge="1">
          <mxGeometry width="50" height="50" relative="1" as="geometry">
            <mxPoint x="315" y="910" as="sourcePoint" />
            <mxPoint x="314.94" y="887" as="targetPoint" />
          </mxGeometry>
        </mxCell>
        <mxCell id="6OfktCob442GTA9k2TRW-112" value="" style="endArrow=none;html=1;rounded=0;strokeWidth=2;entryDx=0;entryDy=0;entryPerimeter=0;exitX=1;exitY=1;exitDx=0;exitDy=0;exitPerimeter=0;" parent="1" source="6OfktCob442GTA9k2TRW-82" target="6OfktCob442GTA9k2TRW-113" edge="1">
          <mxGeometry width="50" height="50" relative="1" as="geometry">
            <mxPoint x="380" y="887" as="sourcePoint" />
            <mxPoint x="240" y="887" as="targetPoint" />
          </mxGeometry>
        </mxCell>
        <mxCell id="6OfktCob442GTA9k2TRW-113" value="" style="shape=waypoint;sketch=0;fillStyle=solid;size=6;pointerEvents=1;points=[];fillColor=none;resizable=0;rotatable=0;perimeter=centerPerimeter;snapToPoint=1;strokeWidth=2;" parent="1" vertex="1">
          <mxGeometry x="305" y="877" width="20" height="20" as="geometry" />
        </mxCell>
        <mxCell id="6OfktCob442GTA9k2TRW-114" value="" style="pointerEvents=1;verticalLabelPosition=bottom;shadow=0;dashed=0;align=center;html=1;verticalAlign=top;shape=mxgraph.electrical.signal_sources.signal_ground;strokeWidth=2;fillColor=none;" parent="1" vertex="1">
          <mxGeometry x="305" y="958" width="20" height="20" as="geometry" />
        </mxCell>
        <mxCell id="6OfktCob442GTA9k2TRW-115" value="" style="endArrow=none;html=1;rounded=0;strokeWidth=2;exitX=0.5;exitY=0;exitDx=0;exitDy=0;exitPerimeter=0;" parent="1" source="6OfktCob442GTA9k2TRW-114" edge="1">
          <mxGeometry width="50" height="50" relative="1" as="geometry">
            <mxPoint x="314.96" y="950" as="sourcePoint" />
            <mxPoint x="314.96" y="940" as="targetPoint" />
          </mxGeometry>
        </mxCell>
        <mxCell id="6OfktCob442GTA9k2TRW-116" value="" style="pointerEvents=1;verticalLabelPosition=bottom;shadow=0;dashed=0;align=center;html=1;verticalAlign=top;shape=mxgraph.electrical.signal_sources.source;aspect=fixed;points=[[0.5,0,0],[1,0.5,0],[0.5,1,0],[0,0.5,0]];elSourceType=dependent;elSignalType=dc3;strokeWidth=2;fillColor=none;fontSize=15;strokeColor=#0000FF;" parent="1" vertex="1">
          <mxGeometry x="760" y="846.5" width="51" height="51" as="geometry" />
        </mxCell>
        <mxCell id="6OfktCob442GTA9k2TRW-117" value="" style="pointerEvents=1;verticalLabelPosition=bottom;shadow=0;dashed=0;align=center;html=1;verticalAlign=top;shape=mxgraph.electrical.resistors.resistor_1;direction=south;strokeWidth=2;fillColor=none;" parent="1" vertex="1">
          <mxGeometry x="855" y="836" width="20" height="76" as="geometry" />
        </mxCell>
        <mxCell id="6OfktCob442GTA9k2TRW-118" value="" style="pointerEvents=1;verticalLabelPosition=bottom;shadow=0;dashed=0;align=center;html=1;verticalAlign=top;shape=mxgraph.electrical.signal_sources.source;aspect=fixed;points=[[0.5,0,0],[1,0.5,0],[0.5,1,0],[0,0.5,0]];elSignalType=dc1;direction=south;fillColor=none;strokeWidth=2;" parent="1" vertex="1">
          <mxGeometry x="915" y="854" width="43" height="43" as="geometry" />
        </mxCell>
        <mxCell id="6OfktCob442GTA9k2TRW-119" value="&lt;font style=&quot;font-size: 16px;&quot;&gt;$$V_\text{os}[n]$$&lt;/font&gt;" style="text;html=1;align=center;verticalAlign=middle;whiteSpace=wrap;rounded=0;strokeWidth=2;" parent="1" vertex="1">
          <mxGeometry x="695" y="859" width="65" height="30" as="geometry" />
        </mxCell>
        <mxCell id="6OfktCob442GTA9k2TRW-120" value="" style="endArrow=none;html=1;rounded=0;strokeWidth=2;" parent="1" edge="1">
          <mxGeometry width="50" height="50" relative="1" as="geometry">
            <mxPoint x="785.59" y="847" as="sourcePoint" />
            <mxPoint x="785" y="790" as="targetPoint" />
          </mxGeometry>
        </mxCell>
        <mxCell id="6OfktCob442GTA9k2TRW-121" value="" style="endArrow=none;html=1;rounded=0;strokeWidth=2;" parent="1" edge="1">
          <mxGeometry width="50" height="50" relative="1" as="geometry">
            <mxPoint x="785" y="951" as="sourcePoint" />
            <mxPoint x="785" y="897" as="targetPoint" />
          </mxGeometry>
        </mxCell>
        <mxCell id="6OfktCob442GTA9k2TRW-122" value="" style="endArrow=none;html=1;rounded=0;strokeWidth=2;" parent="1" source="6OfktCob442GTA9k2TRW-134" edge="1">
          <mxGeometry width="50" height="50" relative="1" as="geometry">
            <mxPoint x="865.26" y="850" as="sourcePoint" />
            <mxPoint x="865" y="790" as="targetPoint" />
          </mxGeometry>
        </mxCell>
        <mxCell id="6OfktCob442GTA9k2TRW-123" value="" style="endArrow=none;html=1;rounded=0;strokeWidth=2;exitDx=0;exitDy=0;exitPerimeter=0;" parent="1" source="6OfktCob442GTA9k2TRW-142" edge="1">
          <mxGeometry width="50" height="50" relative="1" as="geometry">
            <mxPoint x="936.6199999999999" y="850" as="sourcePoint" />
            <mxPoint x="936.3600000000001" y="790" as="targetPoint" />
          </mxGeometry>
        </mxCell>
        <mxCell id="6OfktCob442GTA9k2TRW-124" value="" style="endArrow=none;html=1;rounded=0;strokeWidth=2;" parent="1" edge="1">
          <mxGeometry width="50" height="50" relative="1" as="geometry">
            <mxPoint x="865" y="951" as="sourcePoint" />
            <mxPoint x="865" y="911" as="targetPoint" />
          </mxGeometry>
        </mxCell>
        <mxCell id="6OfktCob442GTA9k2TRW-125" value="" style="endArrow=none;html=1;rounded=0;strokeWidth=2;" parent="1" edge="1">
          <mxGeometry width="50" height="50" relative="1" as="geometry">
            <mxPoint x="936" y="951" as="sourcePoint" />
            <mxPoint x="936" y="897" as="targetPoint" />
          </mxGeometry>
        </mxCell>
        <mxCell id="6OfktCob442GTA9k2TRW-126" value="" style="endArrow=none;html=1;rounded=0;strokeWidth=2;" parent="1" edge="1">
          <mxGeometry width="50" height="50" relative="1" as="geometry">
            <mxPoint x="869" y="950" as="sourcePoint" />
            <mxPoint x="784.6600000000001" y="950" as="targetPoint" />
          </mxGeometry>
        </mxCell>
        <mxCell id="6OfktCob442GTA9k2TRW-127" value="" style="endArrow=none;html=1;rounded=0;strokeWidth=2;" parent="1" target="6OfktCob442GTA9k2TRW-128" edge="1">
          <mxGeometry width="50" height="50" relative="1" as="geometry">
            <mxPoint x="937" y="950" as="sourcePoint" />
            <mxPoint x="780.6600000000001" y="950" as="targetPoint" />
          </mxGeometry>
        </mxCell>
        <mxCell id="6OfktCob442GTA9k2TRW-128" value="" style="shape=waypoint;sketch=0;fillStyle=solid;size=6;pointerEvents=1;points=[];fillColor=none;resizable=0;rotatable=0;perimeter=centerPerimeter;snapToPoint=1;strokeWidth=2;" parent="1" vertex="1">
          <mxGeometry x="855" y="940" width="20" height="20" as="geometry" />
        </mxCell>
        <mxCell id="6OfktCob442GTA9k2TRW-129" value="" style="pointerEvents=1;verticalLabelPosition=bottom;shadow=0;dashed=0;align=center;html=1;verticalAlign=top;shape=mxgraph.electrical.signal_sources.signal_ground;strokeWidth=2;fillColor=none;" parent="1" vertex="1">
          <mxGeometry x="855" y="958" width="20" height="20" as="geometry" />
        </mxCell>
        <mxCell id="6OfktCob442GTA9k2TRW-130" value="" style="endArrow=none;html=1;rounded=0;strokeWidth=2;" parent="1" edge="1">
          <mxGeometry width="50" height="50" relative="1" as="geometry">
            <mxPoint x="864.96" y="962" as="sourcePoint" />
            <mxPoint x="864.96" y="952" as="targetPoint" />
          </mxGeometry>
        </mxCell>
        <mxCell id="6OfktCob442GTA9k2TRW-131" value="" style="endArrow=none;html=1;rounded=0;strokeWidth=2;" parent="1" edge="1">
          <mxGeometry width="50" height="50" relative="1" as="geometry">
            <mxPoint x="937" y="790" as="sourcePoint" />
            <mxPoint x="785" y="790" as="targetPoint" />
          </mxGeometry>
        </mxCell>
        <mxCell id="6OfktCob442GTA9k2TRW-132" value="" style="endArrow=none;html=1;rounded=0;strokeWidth=2;" parent="1" edge="1">
          <mxGeometry width="50" height="50" relative="1" as="geometry">
            <mxPoint x="936" y="792" as="sourcePoint" />
            <mxPoint x="936" y="670" as="targetPoint" />
          </mxGeometry>
        </mxCell>
        <mxCell id="6OfktCob442GTA9k2TRW-133" value="" style="endArrow=none;html=1;rounded=0;strokeWidth=2;" parent="1" target="6OfktCob442GTA9k2TRW-134" edge="1">
          <mxGeometry width="50" height="50" relative="1" as="geometry">
            <mxPoint x="865" y="850" as="sourcePoint" />
            <mxPoint x="865" y="790" as="targetPoint" />
          </mxGeometry>
        </mxCell>
        <mxCell id="6OfktCob442GTA9k2TRW-134" value="" style="shape=waypoint;sketch=0;fillStyle=solid;size=6;pointerEvents=1;points=[];fillColor=none;resizable=0;rotatable=0;perimeter=centerPerimeter;snapToPoint=1;strokeWidth=2;" parent="1" vertex="1">
          <mxGeometry x="855" y="779" width="20" height="20" as="geometry" />
        </mxCell>
        <mxCell id="6OfktCob442GTA9k2TRW-135" value="" style="endArrow=none;html=1;rounded=0;strokeWidth=2;startArrow=none;startFill=0;" parent="1" edge="1">
          <mxGeometry width="50" height="50" relative="1" as="geometry">
            <mxPoint x="811" y="669" as="sourcePoint" />
            <mxPoint x="937" y="670" as="targetPoint" />
          </mxGeometry>
        </mxCell>
        <mxCell id="6OfktCob442GTA9k2TRW-136" value="&lt;font style=&quot;font-size: 16px;&quot;&gt;$$R_E$$&lt;/font&gt;" style="text;html=1;align=center;verticalAlign=middle;whiteSpace=wrap;rounded=0;strokeWidth=2;" parent="1" vertex="1">
          <mxGeometry x="810" y="824" width="65" height="30" as="geometry" />
        </mxCell>
        <mxCell id="6OfktCob442GTA9k2TRW-137" value="&lt;font style=&quot;font-size: 16px;&quot;&gt;$$I_0$$&lt;/font&gt;" style="text;html=1;align=center;verticalAlign=middle;whiteSpace=wrap;rounded=0;strokeWidth=2;" parent="1" vertex="1">
          <mxGeometry x="881.5" y="825" width="65" height="30" as="geometry" />
        </mxCell>
        <mxCell id="6OfktCob442GTA9k2TRW-138" value="&lt;font style=&quot;color: rgb(153, 51, 255); font-size: 20px;&quot;&gt;&lt;b style=&quot;&quot;&gt;Feedback&lt;/b&gt;&lt;/font&gt;" style="text;html=1;align=center;verticalAlign=middle;whiteSpace=wrap;rounded=0;" parent="1" vertex="1">
          <mxGeometry x="930" y="530" width="90" height="30" as="geometry" />
        </mxCell>
        <mxCell id="6OfktCob442GTA9k2TRW-139" value="&lt;font style=&quot;color: rgb(0, 153, 0); font-size: 20px;&quot;&gt;&lt;b style=&quot;&quot;&gt;Monitor&lt;/b&gt;&lt;/font&gt;" style="text;html=1;align=center;verticalAlign=middle;whiteSpace=wrap;rounded=0;" parent="1" vertex="1">
          <mxGeometry x="960" y="761" width="60" height="30" as="geometry" />
        </mxCell>
        <mxCell id="6OfktCob442GTA9k2TRW-140" value="&lt;span style=&quot;text-align: start;&quot;&gt;&lt;font face=&quot;Helvetica&quot; style=&quot;color: rgb(204, 102, 0); font-size: 20px;&quot;&gt;&lt;b style=&quot;&quot;&gt;Objective&lt;/b&gt;&lt;/font&gt;&lt;/span&gt;" style="text;html=1;align=center;verticalAlign=middle;whiteSpace=wrap;rounded=0;" parent="1" vertex="1">
          <mxGeometry x="585" y="761" width="90" height="30" as="geometry" />
        </mxCell>
        <mxCell id="6OfktCob442GTA9k2TRW-141" value="" style="endArrow=none;html=1;rounded=0;strokeWidth=2;exitX=0;exitY=0.5;exitDx=0;exitDy=0;exitPerimeter=0;" parent="1" source="6OfktCob442GTA9k2TRW-118" target="6OfktCob442GTA9k2TRW-142" edge="1">
          <mxGeometry width="50" height="50" relative="1" as="geometry">
            <mxPoint x="937" y="854" as="sourcePoint" />
            <mxPoint x="936.3600000000001" y="790" as="targetPoint" />
          </mxGeometry>
        </mxCell>
        <mxCell id="6OfktCob442GTA9k2TRW-142" value="" style="shape=waypoint;sketch=0;fillStyle=solid;size=6;pointerEvents=1;points=[];fillColor=none;resizable=0;rotatable=0;perimeter=centerPerimeter;snapToPoint=1;strokeWidth=2;" parent="1" vertex="1">
          <mxGeometry x="926.5" y="779" width="20" height="20" as="geometry" />
        </mxCell>
        <mxCell id="6OfktCob442GTA9k2TRW-143" value="" style="endArrow=none;html=1;rounded=0;strokeWidth=2;entryDx=0;entryDy=0;entryPerimeter=0;" parent="1" target="6OfktCob442GTA9k2TRW-144" edge="1">
          <mxGeometry width="50" height="50" relative="1" as="geometry">
            <mxPoint x="720" y="670" as="sourcePoint" />
            <mxPoint x="750" y="670" as="targetPoint" />
          </mxGeometry>
        </mxCell>
        <mxCell id="6OfktCob442GTA9k2TRW-144" value="" style="shape=waypoint;sketch=0;fillStyle=solid;size=6;pointerEvents=1;points=[];fillColor=none;resizable=0;rotatable=0;perimeter=centerPerimeter;snapToPoint=1;strokeWidth=2;strokeColor=#000000;" parent="1" vertex="1">
          <mxGeometry x="670" y="660" width="20" height="20" as="geometry" />
        </mxCell>
        <mxCell id="6OfktCob442GTA9k2TRW-145" value="&lt;font style=&quot;font-size: 16px; color: rgb(153, 51, 255);&quot;&gt;$$\Delta V_\text{os}[n]=\frac{I_l[n-1]-I_r[n]}{G_m}$$&lt;/font&gt;" style="text;html=1;align=center;verticalAlign=middle;whiteSpace=wrap;rounded=0;strokeWidth=2;" parent="1" vertex="1">
          <mxGeometry x="210" y="540" width="215" height="30" as="geometry" />
        </mxCell>
        <mxCell id="6OfktCob442GTA9k2TRW-146" value="&lt;font style=&quot;font-size: 16px; color: rgb(153, 76, 0);&quot;&gt;$$G_m$$&lt;/font&gt;" style="text;html=1;align=center;verticalAlign=middle;whiteSpace=wrap;rounded=0;strokeWidth=2;" parent="1" vertex="1">
          <mxGeometry x="280" y="836" width="70" height="30" as="geometry" />
        </mxCell>
        <mxCell id="6OfktCob442GTA9k2TRW-147" value="&lt;font style=&quot;font-size: 16px;&quot;&gt;$$V_\text{os0}$$&lt;/font&gt;" style="text;html=1;align=center;verticalAlign=middle;whiteSpace=wrap;rounded=0;strokeWidth=2;" parent="1" vertex="1">
          <mxGeometry x="445" y="874" width="60" height="30" as="geometry" />
        </mxCell>
        <mxCell id="6OfktCob442GTA9k2TRW-149" value="&lt;font style=&quot;font-size: 14px; color: rgb(0, 0, 255);&quot;&gt;&lt;b style=&quot;&quot;&gt;$$ -1$$&lt;/b&gt;&lt;/font&gt;" style="text;html=1;align=center;verticalAlign=middle;whiteSpace=wrap;rounded=0;strokeWidth=2;" parent="1" vertex="1">
          <mxGeometry x="753" y="857" width="65" height="30" as="geometry" />
        </mxCell>
        <mxCell id="6OfktCob442GTA9k2TRW-152" value="&lt;font style=&quot;font-size: 32px; color: rgb(255, 0, 0);&quot;&gt;&lt;i&gt;&lt;b&gt;$$\Phi_+$$&lt;/b&gt;&lt;/i&gt;&lt;/font&gt;" style="text;html=1;align=center;verticalAlign=middle;whiteSpace=wrap;rounded=0;strokeWidth=2;" parent="1" vertex="1">
          <mxGeometry x="610" y="448" width="60" height="30" as="geometry" />
        </mxCell>
        <mxCell id="6OfktCob442GTA9k2TRW-153" value="&lt;font style=&quot;font-size: 32px; color: rgb(0, 127, 255);&quot;&gt;&lt;b&gt;&lt;i&gt;$$\Phi_-$$&lt;/i&gt;&lt;/b&gt;&lt;/font&gt;" style="text;html=1;align=center;verticalAlign=middle;whiteSpace=wrap;rounded=0;strokeWidth=2;" parent="1" vertex="1">
          <mxGeometry x="610" y="958" width="60" height="30" as="geometry" />
        </mxCell>
      </root>
    </mxGraphModel>
  </diagram>
</mxfile>
